<?xml version="1.0" encoding="utf-8"?>
<!-- Generator: Adobe Illustrator 26.3.1, SVG Export Plug-In . SVG Version: 6.00 Build 0)  -->
<svg version="1.1" id="Layer_1" xmlns="http://www.w3.org/2000/svg" xmlns:xlink="http://www.w3.org/1999/xlink" x="0px" y="0px"
	 viewBox="0 0 1018.52 227.22" style="enable-background:new 0 0 1018.52 227.22;" xml:space="preserve">
<style type="text/css">
	.st0{fill:#F7C9C0;}
	.st1{fill:#F34C50;}
	.st2{fill:#FFFFFF;}
</style>
<g id="Layered_Text">
	<g>
		<g>
			<path class="st0" d="M122.42,185.21c-4,8.47-9.4,15.77-16.19,21.91c-6.79,6.14-14.79,10.89-24,14.24
				c-9.21,3.35-19.12,5.02-29.73,5.02c-7.44,0-14.89-2-22.33-6c-7.44-4-14.61-10.37-21.49-19.12l20.66-40.47
				c1.3,2.42,3.25,4.88,5.86,7.4c2.6,2.51,5.53,4.7,8.79,6.56c3.25,1.86,6.51,3.4,9.77,4.61c3.25,1.21,6.18,1.81,8.79,1.81
				c2.23,0,4.56-0.37,6.98-1.12c2.42-0.74,4.65-1.86,6.7-3.35c2.05-1.49,3.67-3.21,4.88-5.16c1.21-1.95,1.81-4.23,1.81-6.84
				c0-4.47-1.44-8.6-4.33-12.42c-2.89-3.81-6.47-7.44-10.75-10.89c-4.28-3.44-8.93-6.93-13.96-10.47
				c-5.02-3.53-9.63-7.26-13.82-11.16c-4.19-3.91-7.77-8.28-10.75-13.12c-2.98-4.84-4.47-10.23-4.47-16.19
				c0-9.67,2.88-18.7,8.65-27.07C39.29,55,46.5,47.8,55.16,41.75c8.65-6.04,18.09-10.84,28.33-14.37c10.23-3.53,19.91-5.3,29.03-5.3
				c5.02,0,9.77,0.61,14.24,1.81c4.47,1.21,8.33,3.17,11.58,5.86c3.25,2.7,5.86,6.1,7.82,10.19c1.95,4.1,2.93,9.21,2.93,15.35
				c0,2.61-0.24,5.21-0.7,7.81c-0.47,2.61-0.89,5.4-1.26,8.37L106.65,83.2c0.37-1.49,0.7-2.97,0.98-4.47
				c0.28-1.49,0.42-2.97,0.42-4.47c0-5.58-0.98-9.63-2.93-12.14c-1.95-2.51-4.51-3.77-7.68-3.77c-1.49,0-3.31,0.56-5.44,1.67
				c-2.14,1.12-4.28,2.56-6.42,4.33c-2.14,1.77-3.96,3.86-5.44,6.28c-1.49,2.42-2.23,5.02-2.23,7.81c0,4.47,1.26,8.19,3.77,11.16
				c2.51,2.98,5.63,5.77,9.35,8.37c3.72,2.61,7.77,5.26,12.14,7.95c4.37,2.7,8.42,6.19,12.14,10.47c3.72,4.28,6.84,9.63,9.35,16.05
				c2.51,6.42,3.77,14.56,3.77,24.42C128.42,167.31,126.42,176.75,122.42,185.21z"/>
			<path class="st0" d="M149.91,226.1c4.28-20.47,8.37-40.65,12.28-60.57c1.67-8.37,3.35-17.12,5.02-26.24
				c1.67-9.11,3.3-18.09,4.88-26.93c1.58-8.84,2.97-17.4,4.19-25.68c1.21-8.28,2.28-15.86,3.21-22.75
				c-4.28-0.56-8.61-0.74-12.98-0.56c-4.37,0.19-8.7-0.37-12.98-1.67c0.18-2.97,0.28-6.42,0.28-10.33c0-3.91,0.09-7.81,0.28-11.72
				c0.18-4.28,0.37-8.84,0.56-13.68c4.84,0.38,9.67,0.65,14.51,0.84c4.84,0.19,9.67,0.28,14.51,0.28c9.49,0,18.65-0.23,27.49-0.7
				c8.84-0.46,17.03-1.02,24.56-1.67c7.54-0.65,14.93-1.44,22.19-2.37l-3.07,15.07c-0.93,4.28-1.81,8.65-2.65,13.12
				c-0.84,4.47-1.63,8.28-2.37,11.44c-4.1,1.12-8.23,1.91-12.42,2.37c-4.19,0.47-8.33,1.07-12.42,1.81
				c-1.3,6.33-2.7,13.35-4.19,21.07c-1.49,7.72-2.93,15.73-4.33,24c-1.4,8.28-2.75,16.7-4.05,25.26c-1.3,8.56-2.61,16.75-3.91,24.56
				c-2.98,18.42-5.77,37.5-8.37,57.22L149.91,226.1z"/>
			<path class="st0" d="M263.37,220.94c-4.93,0.47-10,1.02-15.21,1.67c-5.21,0.65-9.91,1.26-14.1,1.81
				c-4.19,0.56-6.47,0.93-6.84,1.12c1.86-8,3.77-16.89,5.72-26.66c1.95-9.77,3.95-20,6-30.7c2.05-10.7,4-21.54,5.86-32.52
				c1.86-10.98,3.63-21.58,5.3-31.82c3.91-23.82,7.82-48.29,11.72-73.41l43.54-6.98c-4.28,24.94-8.47,49.4-12.56,73.41
				c-1.67,10.24-3.4,20.84-5.16,31.82c-1.77,10.98-3.54,21.87-5.3,32.66c-1.77,10.79-3.4,21.26-4.88,31.4
				c-1.49,10.14-2.89,19.31-4.19,27.49C271.61,220.24,268.3,220.48,263.37,220.94z"/>
			<path class="st0" d="M283.61,227.22c5.58-26.8,10.89-52.75,15.91-77.87c1.86-10.79,3.86-21.95,6-33.49
				c2.14-11.54,4.14-22.93,6-34.19c1.86-11.26,3.53-22.05,5.02-32.38c1.49-10.33,2.6-19.68,3.35-28.05
				c2.42,0.19,4.47,0.28,6.14,0.28c1.67,0,3.63,0,5.86,0c2.6,0,5.77-0.04,9.49-0.14c3.72-0.09,7.44-0.23,11.16-0.42
				c3.72-0.18,7.72-0.37,12-0.56c2.6,13.03,4.93,25.59,6.98,37.68c2.05,10.61,4.14,21.49,6.28,32.66
				c2.14,11.16,4.05,20.65,5.72,28.47c0.74-3.72,1.58-8.05,2.51-12.98c0.93-4.93,1.95-10.09,3.07-15.49
				c1.12-5.39,2.18-10.84,3.21-16.33c1.02-5.49,2.09-10.93,3.21-16.33c2.6-12.09,5.3-24.56,8.09-37.4l34.05-4.19
				c-6.33,28.47-11.91,55.45-16.75,80.94c-2.23,10.98-4.42,22.1-6.56,33.35c-2.14,11.26-4.14,22.05-6,32.38
				c-1.86,10.33-3.45,19.91-4.75,28.75c-1.3,8.84-2.33,16.24-3.07,22.19c-0.56,0-2.75,0.42-6.56,1.26
				c-3.82,0.84-8.19,1.81-13.12,2.93c-4.93,1.12-9.87,2.23-14.79,3.35c-4.93,1.12-8.61,2.14-11.02,3.07
				c-1.12-14.88-2.33-29.03-3.63-42.43c-0.56-5.77-1.16-11.68-1.81-17.72c-0.65-6.04-1.35-11.86-2.09-17.45
				c-0.75-5.58-1.49-10.79-2.23-15.63c-0.75-4.84-1.49-9.02-2.23-12.56c-0.56,3.54-1.3,7.63-2.23,12.28
				c-0.93,4.65-1.86,9.59-2.79,14.79c-0.93,5.21-1.86,10.65-2.79,16.33c-0.93,5.68-1.95,11.12-3.07,16.33
				c-2.42,12.47-5.02,25.5-7.82,39.08L283.61,227.22z"/>
			<path class="st0" d="M410.33,226.1c5.58-26.05,10.79-51.36,15.63-75.92c1.86-10.61,3.81-21.58,5.86-32.94
				c2.05-11.35,3.95-22.61,5.72-33.77c1.77-11.16,3.35-22,4.74-32.52c1.4-10.51,2.46-20.05,3.21-28.61
				c4.28,0.37,9.11,0.7,14.51,0.98c5.39,0.28,10.42,0.61,15.07,0.98c5.58,0.37,11.16,0.56,16.75,0.56
				c-0.19,0.75-0.47,2.14-0.84,4.19c-0.37,2.05-0.84,4.51-1.4,7.4c-0.56,2.89-1.16,6.1-1.81,9.63c-0.65,3.54-1.35,7.07-2.09,10.61
				c-1.49,8.19-3.17,17.4-5.02,27.63l1.67-0.28c1.86-2.97,4.51-7.12,7.96-12.42c3.44-5.3,7.02-10.93,10.75-16.89
				c3.72-5.95,7.35-11.68,10.89-17.17c3.53-5.49,6.51-10.19,8.93-14.1c9.3-0.74,18.6-1.58,27.91-2.51c9.3-0.93,18.6-2.14,27.91-3.63
				c-8.75,11.72-17.21,23.26-25.4,34.61c-3.54,4.84-7.12,9.87-10.75,15.07c-3.63,5.21-7.21,10.33-10.75,15.35
				c-3.54,5.02-6.84,9.87-9.91,14.51c-3.07,4.65-5.82,8.93-8.23,12.84c4.09,18.8,8.93,36.94,14.51,54.43
				c5.58,17.49,11.26,35.36,17.03,53.59c-4.28-0.18-8.65-0.32-13.12-0.42c-4.47-0.09-8.84-0.14-13.12-0.14
				c-5.4,0-10.61,0.05-15.63,0.14c-5.02,0.1-10.24,0.24-15.63,0.42c-1.67-12.09-3.49-24.79-5.44-38.1c-1.95-13.3-3.77-26-5.44-38.1
				l-5.02,5.86c-1.3,5.58-2.75,12.47-4.33,20.66c-1.58,8.19-3.12,16.1-4.61,23.72c-1.67,8.93-3.45,18.14-5.3,27.63L410.33,226.1z"/>
			<path class="st0" d="M539.56,226.38c5.21-26.05,10.23-51.45,15.07-76.2c1.86-10.61,3.81-21.63,5.86-33.08
				c2.05-11.44,3.95-22.75,5.72-33.91c1.77-11.16,3.44-22,5.02-32.52c1.58-10.51,2.84-20.05,3.77-28.61
				c4.28,0.19,8.23,0.42,11.86,0.7c3.63,0.28,7.21,0.51,10.75,0.7c3.53,0.19,7.12,0.33,10.75,0.42c3.63,0.1,7.58,0.14,11.86,0.14
				c-3.17,13.21-6.28,26.42-9.35,39.63c-3.07,13.21-5.91,26.52-8.51,39.91l27.63-3.07c2.6-13.21,4.93-26,6.98-38.38
				c2.05-12.37,4.74-25.16,8.09-38.38c4.28-0.74,9.02-1.35,14.24-1.81c5.21-0.46,10.05-0.88,14.51-1.26
				c4.47-0.37,9.77-0.84,15.91-1.4c-2.61,8.37-5.07,17.54-7.4,27.49c-2.33,9.96-4.61,20.28-6.84,30.98
				c-2.23,10.7-4.37,21.54-6.42,32.52c-2.05,10.98-3.91,21.4-5.58,31.26c-4.1,23.63-7.91,47.83-11.44,72.57l-43.54,5.02
				c2.42-11.16,4.56-22.05,6.42-32.66c1.86-8.93,3.77-18.23,5.72-27.91c1.95-9.67,3.49-17.96,4.61-24.84l-27.07,2.51
				c-1.3,7.07-2.84,15.26-4.61,24.56c-1.77,9.31-3.4,18.14-4.88,26.52c-2.05,10.05-4.1,20.1-6.14,30.14L539.56,226.38z"/>
			<path class="st0" d="M662.65,226.1l36.56-198.45l88.2-7.54c-1.3,4.09-2.42,8.28-3.35,12.56c-0.93,3.54-1.81,7.21-2.65,11.03
				c-0.84,3.82-1.54,7.21-2.09,10.19c-1.86,0.19-4.51,0.33-7.95,0.42c-3.45,0.1-7.12,0.19-11.03,0.28
				c-3.91,0.1-7.86,0.14-11.86,0.14c-4,0-7.49,0-10.47,0l-9.77,49.96c5.77-0.37,11.16-0.65,16.19-0.84
				c4.09-0.18,8.28-0.28,12.56-0.28c4.28,0,7.44-0.09,9.49-0.28c-0.75,5.21-1.44,10.33-2.09,15.35c-0.65,5.02-1.44,10.14-2.37,15.35
				c-1.86,0.19-4.88,0.33-9.07,0.42c-4.19,0.1-8.42,0.24-12.7,0.42c-4.84,0.19-10.14,0.38-15.91,0.56l-9.49,51.36l40.75-6.42
				l-2.79,31.82L662.65,226.1z"/>
			<path class="st0" d="M842.95,222.75c-5.58,0.93-10.61,1.77-15.07,2.51c0.74-6.14,1.49-12.19,2.23-18.14
				c0.56-5.21,1.07-10.42,1.54-15.63c0.46-5.21,0.88-9.67,1.26-13.4h-24.28l-11.16,40.19c-4.1,0.56-8.93,1.16-14.51,1.81
				c-5.58,0.65-10.79,1.26-15.63,1.81c-5.96,0.75-11.81,1.49-17.58,2.23c7.44-24.75,14.79-49.12,22.05-73.13
				c2.97-10.05,6.09-20.56,9.35-31.54c3.25-10.98,6.51-21.91,9.77-32.8c3.25-10.89,6.37-21.35,9.35-31.4
				c2.97-10.05,5.58-19.26,7.82-27.63c12.65-0.93,25.54-2.05,38.66-3.35c13.12-1.3,25.91-3.07,38.38-5.3
				c-0.56,5.96-1.16,13.35-1.81,22.19c-0.65,8.84-1.26,18.47-1.81,28.89c-0.56,10.42-1.12,21.31-1.67,32.66
				c-0.56,11.35-1.12,22.52-1.67,33.49c-0.93,25.68-1.95,52.94-3.07,81.78c-5.58,0.93-11.16,1.67-16.75,2.23
				C853.65,220.99,848.54,221.82,842.95,222.75z M815.32,150.18c0.74,0,2.09-0.04,4.05-0.14c1.95-0.09,4-0.18,6.14-0.28
				c2.14-0.09,4.14-0.18,6-0.28c1.86-0.09,3.16-0.23,3.91-0.42c0-1.12,0.14-3.02,0.42-5.72c0.28-2.69,0.56-5.77,0.84-9.21
				c0.28-3.44,0.6-7.21,0.98-11.3c0.37-4.09,0.74-8.09,1.12-12c0.74-9.49,1.67-19.72,2.79-30.7l1.67-24.28l-4.19,0.28l-6.42,24
				L815.32,150.18z"/>
			<path class="st0" d="M1014.33,114.04c-2.79,10.89-6.7,21.68-11.72,32.38c-5.02,10.7-11.21,20.93-18.56,30.7
				c-7.35,9.77-15.68,18.33-24.98,25.68c-9.31,7.35-19.49,13.26-30.56,17.72c-11.07,4.47-22.84,6.7-35.31,6.7
				c-2.61,0-5.21-0.14-7.82-0.42c-2.61-0.28-5.21-0.61-7.81-0.98c5.02-25.68,9.95-50.7,14.79-75.08
				c1.86-10.23,3.81-20.89,5.86-31.96c2.05-11.07,4-22,5.86-32.8c1.86-10.79,3.67-21.12,5.44-30.98c1.77-9.86,3.21-18.79,4.33-26.8
				c8-1.49,16.09-2.88,24.28-4.19c8.19-1.3,16.56-1.95,25.12-1.95c10.05,0,18.56,1.58,25.54,4.75c6.98,3.17,12.65,7.54,17.03,13.12
				c4.37,5.58,7.58,12.1,9.63,19.54c2.05,7.44,3.07,15.35,3.07,23.72C1018.52,92.87,1017.12,103.15,1014.33,114.04z M946.23,92.96
				c-2.23,10.05-4.47,20.19-6.7,30.42c-2.23,10.24-4.47,20.93-6.7,32.1c-2.23,11.16-4.37,23.35-6.42,36.56
				c4.47-2.97,8.79-7.02,12.98-12.14c4.19-5.12,8.14-11.02,11.86-17.72c3.72-6.7,7.12-13.77,10.19-21.21
				c3.07-7.44,5.72-14.7,7.95-21.77c2.23-7.07,3.95-13.68,5.16-19.82c1.21-6.14,1.81-11.44,1.81-15.91c0-6.88-1.91-12.28-5.72-16.19
				c-3.82-3.91-9.82-5.86-18-5.86C950.6,72.41,948.46,82.92,946.23,92.96z"/>
		</g>
		<g>
			<path class="st1" d="M120.19,182.36c-4,8.47-9.4,15.77-16.19,21.91c-6.79,6.14-14.79,10.89-24,14.24
				c-9.21,3.35-19.12,5.02-29.73,5.02c-7.44,0-14.89-2-22.33-6c-7.44-4-14.61-10.37-21.49-19.12l20.66-40.47
				c1.3,2.42,3.25,4.88,5.86,7.4c2.6,2.51,5.53,4.7,8.79,6.56c3.25,1.86,6.51,3.4,9.77,4.61c3.25,1.21,6.18,1.81,8.79,1.81
				c2.23,0,4.56-0.37,6.98-1.12c2.42-0.74,4.65-1.86,6.7-3.35c2.05-1.49,3.67-3.21,4.88-5.16c1.21-1.95,1.81-4.23,1.81-6.84
				c0-4.47-1.44-8.6-4.33-12.42c-2.89-3.81-6.47-7.44-10.75-10.89c-4.28-3.44-8.93-6.93-13.96-10.47
				c-5.02-3.53-9.63-7.26-13.82-11.16c-4.19-3.91-7.77-8.28-10.75-13.12c-2.98-4.84-4.47-10.23-4.47-16.19
				c0-9.67,2.88-18.7,8.65-27.07c5.77-8.37,12.98-15.58,21.63-21.63c8.65-6.04,18.09-10.84,28.33-14.37
				c10.23-3.53,19.91-5.3,29.03-5.3c5.02,0,9.77,0.61,14.24,1.81c4.47,1.21,8.33,3.17,11.58,5.86c3.25,2.7,5.86,6.1,7.82,10.19
				c1.95,4.1,2.93,9.21,2.93,15.35c0,2.61-0.24,5.21-0.7,7.81c-0.47,2.61-0.89,5.4-1.26,8.37l-40.47,11.72
				c0.37-1.49,0.7-2.97,0.98-4.47c0.28-1.49,0.42-2.97,0.42-4.47c0-5.58-0.98-9.63-2.93-12.14c-1.95-2.51-4.51-3.77-7.68-3.77
				c-1.49,0-3.31,0.56-5.44,1.67c-2.14,1.12-4.28,2.56-6.42,4.33c-2.14,1.77-3.96,3.86-5.44,6.28c-1.49,2.42-2.23,5.02-2.23,7.81
				c0,4.47,1.26,8.19,3.77,11.16c2.51,2.98,5.63,5.77,9.35,8.37c3.72,2.61,7.77,5.26,12.14,7.95c4.37,2.7,8.42,6.19,12.14,10.47
				c3.72,4.28,6.84,9.63,9.35,16.05c2.51,6.42,3.77,14.56,3.77,24.42C126.19,164.45,124.19,173.89,120.19,182.36z"/>
			<path class="st1" d="M147.68,223.25c4.28-20.47,8.37-40.65,12.28-60.57c1.67-8.37,3.35-17.12,5.02-26.24
				c1.67-9.11,3.3-18.09,4.88-26.93c1.58-8.84,2.97-17.4,4.19-25.68c1.21-8.28,2.28-15.86,3.21-22.75
				c-4.28-0.56-8.61-0.74-12.98-0.56c-4.37,0.19-8.7-0.37-12.98-1.67c0.18-2.97,0.28-6.42,0.28-10.33c0-3.91,0.09-7.81,0.28-11.72
				c0.18-4.28,0.37-8.84,0.56-13.68c4.84,0.38,9.67,0.65,14.51,0.84c4.84,0.19,9.67,0.28,14.51,0.28c9.49,0,18.65-0.23,27.49-0.7
				c8.84-0.46,17.03-1.02,24.56-1.67c7.54-0.65,14.93-1.44,22.19-2.37l-3.07,15.07c-0.93,4.28-1.81,8.65-2.65,13.12
				s-1.63,8.28-2.37,11.44c-4.1,1.12-8.23,1.91-12.42,2.37c-4.19,0.47-8.33,1.07-12.42,1.81c-1.3,6.33-2.7,13.35-4.19,21.07
				c-1.49,7.72-2.93,15.73-4.33,24c-1.4,8.28-2.75,16.7-4.05,25.26c-1.3,8.56-2.61,16.75-3.91,24.56
				c-2.98,18.42-5.77,37.5-8.37,57.22L147.68,223.25z"/>
			<path class="st1" d="M261.14,218.08c-4.93,0.47-10,1.02-15.21,1.67c-5.21,0.65-9.91,1.26-14.1,1.81s-6.47,0.93-6.84,1.12
				c1.86-8,3.77-16.89,5.72-26.66c1.95-9.77,3.95-20,6-30.7c2.05-10.7,4-21.54,5.86-32.52c1.86-10.98,3.63-21.58,5.3-31.82
				c3.91-23.82,7.82-48.29,11.72-73.41l43.54-6.98c-4.28,24.94-8.47,49.4-12.56,73.41c-1.67,10.24-3.4,20.84-5.16,31.82
				c-1.77,10.98-3.54,21.87-5.3,32.66c-1.77,10.79-3.4,21.26-4.88,31.4c-1.49,10.14-2.89,19.31-4.19,27.49
				C269.38,217.39,266.07,217.62,261.14,218.08z"/>
			<path class="st1" d="M281.38,224.36c5.58-26.8,10.89-52.75,15.91-77.87c1.86-10.79,3.86-21.95,6-33.49
				c2.14-11.54,4.14-22.93,6-34.19c1.86-11.26,3.53-22.05,5.02-32.38c1.49-10.33,2.6-19.68,3.35-28.05
				c2.42,0.19,4.47,0.28,6.14,0.28c1.67,0,3.63,0,5.86,0c2.6,0,5.77-0.04,9.49-0.14c3.72-0.09,7.44-0.23,11.16-0.42
				c3.72-0.18,7.72-0.37,12-0.56c2.6,13.03,4.93,25.59,6.98,37.68c2.05,10.61,4.14,21.49,6.28,32.66
				c2.14,11.16,4.05,20.65,5.72,28.47c0.74-3.72,1.58-8.05,2.51-12.98c0.93-4.93,1.95-10.09,3.07-15.49
				c1.12-5.39,2.18-10.84,3.21-16.33c1.02-5.49,2.09-10.93,3.21-16.33c2.6-12.09,5.3-24.56,8.09-37.4l34.05-4.19
				c-6.33,28.47-11.91,55.45-16.75,80.94c-2.23,10.98-4.42,22.1-6.56,33.35c-2.14,11.26-4.14,22.05-6,32.38
				c-1.86,10.33-3.45,19.91-4.75,28.75c-1.3,8.84-2.33,16.24-3.07,22.19c-0.56,0-2.75,0.42-6.56,1.26
				c-3.82,0.84-8.19,1.81-13.12,2.93c-4.93,1.12-9.87,2.23-14.79,3.35c-4.93,1.12-8.61,2.14-11.02,3.07
				c-1.12-14.88-2.33-29.03-3.63-42.43c-0.56-5.77-1.16-11.68-1.81-17.72c-0.65-6.04-1.35-11.86-2.09-17.45
				c-0.75-5.58-1.49-10.79-2.23-15.63c-0.75-4.84-1.49-9.02-2.23-12.56c-0.56,3.54-1.3,7.63-2.23,12.28
				c-0.93,4.65-1.86,9.59-2.79,14.79c-0.93,5.21-1.86,10.65-2.79,16.33c-0.93,5.68-1.95,11.12-3.07,16.33
				c-2.42,12.47-5.02,25.5-7.82,39.08L281.38,224.36z"/>
			<path class="st1" d="M408.1,223.25c5.58-26.05,10.79-51.36,15.63-75.92c1.86-10.61,3.81-21.58,5.86-32.94
				c2.05-11.35,3.95-22.61,5.72-33.77c1.77-11.16,3.35-22,4.74-32.52c1.4-10.51,2.46-20.05,3.21-28.61
				c4.28,0.37,9.11,0.7,14.51,0.98c5.39,0.28,10.42,0.61,15.07,0.98c5.58,0.37,11.16,0.56,16.75,0.56
				c-0.19,0.75-0.47,2.14-0.84,4.19c-0.37,2.05-0.84,4.51-1.4,7.4c-0.56,2.89-1.16,6.1-1.81,9.63c-0.65,3.54-1.35,7.07-2.09,10.61
				c-1.49,8.19-3.17,17.4-5.02,27.63l1.67-0.28c1.86-2.97,4.51-7.12,7.96-12.42c3.44-5.3,7.02-10.93,10.75-16.89
				c3.72-5.95,7.35-11.68,10.89-17.17c3.53-5.49,6.51-10.19,8.93-14.1c9.3-0.74,18.6-1.58,27.91-2.51c9.3-0.93,18.6-2.14,27.91-3.63
				c-8.75,11.72-17.21,23.26-25.4,34.61c-3.54,4.84-7.12,9.87-10.75,15.07c-3.63,5.21-7.21,10.33-10.75,15.35
				c-3.54,5.02-6.84,9.87-9.91,14.51c-3.07,4.65-5.82,8.93-8.23,12.84c4.09,18.8,8.93,36.94,14.51,54.43
				c5.58,17.49,11.26,35.36,17.03,53.59c-4.28-0.18-8.65-0.32-13.12-0.42c-4.47-0.09-8.84-0.14-13.12-0.14
				c-5.4,0-10.61,0.05-15.63,0.14c-5.02,0.1-10.24,0.24-15.63,0.42c-1.67-12.09-3.49-24.79-5.44-38.1c-1.95-13.3-3.77-26-5.44-38.1
				l-5.02,5.86c-1.3,5.58-2.75,12.47-4.33,20.66c-1.58,8.19-3.12,16.1-4.61,23.72c-1.67,8.93-3.45,18.14-5.3,27.63L408.1,223.25z"/>
			<path class="st1" d="M537.33,223.53c5.21-26.05,10.23-51.45,15.07-76.2c1.86-10.61,3.81-21.63,5.86-33.08
				c2.05-11.44,3.95-22.75,5.72-33.91c1.77-11.16,3.44-22,5.02-32.52c1.58-10.51,2.84-20.05,3.77-28.61
				c4.28,0.19,8.23,0.42,11.86,0.7c3.63,0.28,7.21,0.51,10.75,0.7c3.53,0.19,7.12,0.33,10.75,0.42c3.63,0.1,7.58,0.14,11.86,0.14
				c-3.17,13.21-6.28,26.42-9.35,39.63c-3.07,13.21-5.91,26.52-8.51,39.91l27.63-3.07c2.6-13.21,4.93-26,6.98-38.38
				c2.05-12.37,4.74-25.16,8.09-38.38c4.28-0.74,9.02-1.35,14.24-1.81c5.21-0.46,10.05-0.88,14.51-1.26
				c4.47-0.37,9.77-0.84,15.91-1.4c-2.61,8.37-5.07,17.54-7.4,27.49c-2.33,9.96-4.61,20.28-6.84,30.98
				c-2.23,10.7-4.37,21.54-6.42,32.52c-2.05,10.98-3.91,21.4-5.58,31.26c-4.1,23.63-7.91,47.83-11.44,72.57l-43.54,5.02
				c2.42-11.16,4.56-22.05,6.42-32.66c1.86-8.93,3.77-18.23,5.72-27.91c1.95-9.67,3.49-17.96,4.61-24.84l-27.07,2.51
				c-1.3,7.07-2.84,15.26-4.61,24.56c-1.77,9.31-3.4,18.14-4.88,26.52c-2.05,10.05-4.1,20.1-6.14,30.14L537.33,223.53z"/>
			<path class="st1" d="M660.41,223.25L696.98,24.8l88.2-7.54c-1.3,4.09-2.42,8.28-3.35,12.56c-0.93,3.54-1.81,7.21-2.65,11.03
				c-0.84,3.82-1.54,7.21-2.09,10.19c-1.86,0.19-4.51,0.33-7.95,0.42c-3.45,0.1-7.12,0.19-11.03,0.28
				c-3.91,0.1-7.86,0.14-11.86,0.14c-4,0-7.49,0-10.47,0l-9.77,49.96c5.77-0.37,11.16-0.65,16.19-0.84
				c4.09-0.18,8.28-0.28,12.56-0.28c4.28,0,7.44-0.09,9.49-0.28c-0.75,5.21-1.44,10.33-2.09,15.35c-0.65,5.02-1.44,10.14-2.37,15.35
				c-1.86,0.19-4.88,0.33-9.07,0.42c-4.19,0.1-8.42,0.24-12.7,0.42c-4.84,0.19-10.14,0.38-15.91,0.56l-9.49,51.36l40.75-6.42
				l-2.79,31.82L660.41,223.25z"/>
			<path class="st1" d="M840.72,219.9c-5.58,0.93-10.61,1.77-15.07,2.51c0.74-6.14,1.49-12.19,2.23-18.14
				c0.56-5.21,1.07-10.42,1.54-15.63c0.46-5.21,0.88-9.67,1.26-13.4h-24.28l-11.16,40.19c-4.1,0.56-8.93,1.16-14.51,1.81
				c-5.58,0.65-10.79,1.26-15.63,1.81c-5.96,0.75-11.81,1.49-17.58,2.23c7.44-24.75,14.79-49.12,22.05-73.13
				c2.97-10.05,6.09-20.56,9.35-31.54c3.25-10.98,6.51-21.91,9.77-32.8c3.25-10.89,6.37-21.35,9.35-31.4
				c2.97-10.05,5.58-19.26,7.82-27.63c12.65-0.93,25.54-2.05,38.66-3.35c13.12-1.3,25.91-3.07,38.38-5.3
				c-0.56,5.96-1.16,13.35-1.81,22.19c-0.65,8.84-1.26,18.47-1.81,28.89c-0.56,10.42-1.12,21.31-1.67,32.66
				c-0.56,11.35-1.12,22.52-1.67,33.49c-0.93,25.68-1.95,52.94-3.07,81.78c-5.58,0.93-11.16,1.67-16.75,2.23
				C851.42,218.13,846.3,218.97,840.72,219.9z M813.09,147.33c0.74,0,2.09-0.04,4.05-0.14c1.95-0.09,4-0.18,6.14-0.28
				c2.14-0.09,4.14-0.18,6-0.28c1.86-0.09,3.16-0.23,3.91-0.42c0-1.12,0.14-3.02,0.42-5.72c0.28-2.69,0.56-5.77,0.84-9.21
				c0.28-3.44,0.6-7.21,0.98-11.3c0.37-4.09,0.74-8.09,1.12-12c0.74-9.49,1.67-19.72,2.79-30.7L841,52.99l-4.19,0.28l-6.42,24
				L813.09,147.33z"/>
			<path class="st1" d="M1012.1,111.18c-2.79,10.89-6.7,21.68-11.72,32.38c-5.02,10.7-11.21,20.93-18.56,30.7
				c-7.35,9.77-15.68,18.33-24.98,25.68c-9.31,7.35-19.49,13.26-30.56,17.72c-11.07,4.47-22.84,6.7-35.31,6.7
				c-2.61,0-5.21-0.14-7.82-0.42c-2.61-0.28-5.21-0.61-7.81-0.98c5.02-25.68,9.95-50.7,14.79-75.08
				c1.86-10.23,3.81-20.89,5.86-31.96c2.05-11.07,4-22,5.86-32.8c1.86-10.79,3.67-21.12,5.44-30.98c1.77-9.86,3.21-18.79,4.33-26.8
				c8-1.49,16.09-2.88,24.28-4.19c8.19-1.3,16.56-1.95,25.12-1.95c10.05,0,18.56,1.58,25.54,4.75c6.98,3.17,12.65,7.54,17.03,13.12
				c4.37,5.58,7.58,12.1,9.63,19.54c2.05,7.44,3.07,15.35,3.07,23.72C1016.29,90.02,1014.89,100.3,1012.1,111.18z M943.99,90.11
				c-2.23,10.05-4.47,20.19-6.7,30.42c-2.23,10.24-4.47,20.93-6.7,32.1c-2.23,11.16-4.37,23.35-6.42,36.56
				c4.47-2.97,8.79-7.02,12.98-12.14c4.19-5.12,8.14-11.02,11.86-17.72c3.72-6.7,7.12-13.77,10.19-21.21
				c3.07-7.44,5.72-14.7,7.95-21.77c2.23-7.07,3.95-13.68,5.16-19.82c1.21-6.14,1.81-11.44,1.81-15.91c0-6.88-1.91-12.28-5.72-16.19
				c-3.82-3.91-9.82-5.86-18-5.86C948.36,69.55,946.23,80.06,943.99,90.11z"/>
		</g>
	</g>
	<g>
		<path class="st2" d="M113.74,168.73c-4,8.47-9.4,15.77-16.19,21.91c-6.79,6.14-14.79,10.89-24,14.24
			c-9.21,3.35-19.12,5.02-29.73,5.02c-7.44,0-14.89-2-22.33-6c-7.44-4-14.61-10.37-21.49-19.12l20.66-40.47
			c1.3,2.42,3.25,4.88,5.86,7.4c2.6,2.51,5.53,4.7,8.79,6.56c3.25,1.86,6.51,3.4,9.77,4.61c3.25,1.21,6.18,1.81,8.79,1.81
			c2.23,0,4.56-0.37,6.98-1.12c2.42-0.74,4.65-1.86,6.7-3.35c2.05-1.49,3.67-3.21,4.88-5.16c1.21-1.95,1.81-4.23,1.81-6.84
			c0-4.47-1.44-8.6-4.33-12.42c-2.89-3.81-6.47-7.44-10.75-10.89c-4.28-3.44-8.93-6.93-13.96-10.47
			c-5.02-3.53-9.63-7.26-13.82-11.16c-4.19-3.91-7.77-8.28-10.75-13.12c-2.98-4.84-4.47-10.23-4.47-16.19
			c0-9.67,2.88-18.7,8.65-27.07c5.77-8.37,12.98-15.58,21.63-21.63c8.65-6.04,18.09-10.84,28.33-14.37
			c10.23-3.53,19.91-5.3,29.03-5.3c5.02,0,9.77,0.61,14.24,1.81c4.47,1.21,8.33,3.17,11.58,5.86c3.25,2.7,5.86,6.1,7.82,10.19
			c1.95,4.1,2.93,9.21,2.93,15.35c0,2.61-0.24,5.21-0.7,7.81c-0.47,2.61-0.89,5.4-1.26,8.37L97.97,66.71
			c0.37-1.49,0.7-2.97,0.98-4.47c0.28-1.49,0.42-2.97,0.42-4.47c0-5.58-0.98-9.63-2.93-12.14c-1.95-2.51-4.51-3.77-7.68-3.77
			c-1.49,0-3.31,0.56-5.44,1.67c-2.14,1.12-4.28,2.56-6.42,4.33c-2.14,1.77-3.96,3.86-5.44,6.28c-1.49,2.42-2.23,5.02-2.23,7.81
			c0,4.47,1.26,8.19,3.77,11.16c2.51,2.98,5.63,5.77,9.35,8.37c3.72,2.61,7.77,5.26,12.14,7.95c4.37,2.7,8.42,6.19,12.14,10.47
			c3.72,4.28,6.84,9.63,9.35,16.05c2.51,6.42,3.77,14.56,3.77,24.42C119.74,150.82,117.74,160.26,113.74,168.73z"/>
		<path class="st2" d="M141.23,209.62c4.28-20.47,8.37-40.65,12.28-60.57c1.67-8.37,3.35-17.12,5.02-26.24
			c1.67-9.11,3.3-18.09,4.88-26.93c1.58-8.84,2.97-17.4,4.19-25.68c1.21-8.28,2.28-15.86,3.21-22.75
			c-4.28-0.56-8.61-0.74-12.98-0.56c-4.37,0.19-8.7-0.37-12.98-1.67c0.18-2.97,0.28-6.42,0.28-10.33c0-3.91,0.09-7.81,0.28-11.72
			c0.18-4.28,0.37-8.84,0.56-13.68c4.84,0.38,9.67,0.65,14.51,0.84c4.84,0.19,9.67,0.28,14.51,0.28c9.49,0,18.65-0.23,27.49-0.7
			c8.84-0.46,17.03-1.02,24.56-1.67c7.54-0.65,14.93-1.44,22.19-2.37l-3.07,15.07c-0.93,4.28-1.81,8.65-2.65,13.12
			s-1.63,8.28-2.37,11.44c-4.1,1.12-8.23,1.91-12.42,2.37c-4.19,0.47-8.33,1.07-12.42,1.81c-1.3,6.33-2.7,13.35-4.19,21.07
			c-1.49,7.72-2.93,15.73-4.33,24c-1.4,8.28-2.75,16.7-4.05,25.26c-1.3,8.56-2.61,16.75-3.91,24.56
			c-2.98,18.42-5.77,37.5-8.37,57.22L141.23,209.62z"/>
		<path class="st2" d="M254.69,204.45c-4.93,0.47-10,1.02-15.21,1.67c-5.21,0.65-9.91,1.26-14.1,1.81
			c-4.19,0.56-6.47,0.93-6.84,1.12c1.86-8,3.77-16.89,5.72-26.66c1.95-9.77,3.95-20,6-30.7c2.05-10.7,4-21.54,5.86-32.52
			c1.86-10.98,3.63-21.58,5.3-31.82c3.91-23.82,7.82-48.29,11.72-73.41l43.54-6.98c-4.28,24.94-8.47,49.4-12.56,73.41
			c-1.67,10.24-3.4,20.84-5.16,31.82c-1.77,10.98-3.54,21.87-5.3,32.66c-1.77,10.79-3.4,21.26-4.88,31.4
			c-1.49,10.14-2.89,19.31-4.19,27.49C262.93,203.76,259.62,203.99,254.69,204.45z"/>
		<path class="st2" d="M274.93,210.73c5.58-26.8,10.89-52.75,15.91-77.87c1.86-10.79,3.86-21.95,6-33.49
			c2.14-11.54,4.14-22.93,6-34.19c1.86-11.26,3.53-22.05,5.02-32.38c1.49-10.33,2.6-19.68,3.35-28.05c2.42,0.19,4.47,0.28,6.14,0.28
			c1.67,0,3.63,0,5.86,0c2.6,0,5.77-0.04,9.49-0.14c3.72-0.09,7.44-0.23,11.16-0.42c3.72-0.18,7.72-0.37,12-0.56
			c2.6,13.03,4.93,25.59,6.98,37.68c2.05,10.61,4.14,21.49,6.28,32.66c2.14,11.16,4.05,20.65,5.72,28.47
			c0.74-3.72,1.58-8.05,2.51-12.98c0.93-4.93,1.95-10.09,3.07-15.49c1.12-5.39,2.18-10.84,3.21-16.33
			c1.02-5.49,2.09-10.93,3.21-16.33c2.6-12.09,5.3-24.56,8.09-37.4L429,0c-6.33,28.47-11.91,55.45-16.75,80.94
			c-2.23,10.98-4.42,22.1-6.56,33.35c-2.14,11.26-4.14,22.05-6,32.38c-1.86,10.33-3.45,19.91-4.75,28.75
			c-1.3,8.84-2.33,16.24-3.07,22.19c-0.56,0-2.75,0.42-6.56,1.26c-3.82,0.84-8.19,1.81-13.12,2.93c-4.93,1.12-9.87,2.23-14.79,3.35
			c-4.93,1.12-8.61,2.14-11.02,3.07c-1.12-14.88-2.33-29.03-3.63-42.43c-0.56-5.77-1.16-11.68-1.81-17.72
			c-0.65-6.04-1.35-11.86-2.09-17.45c-0.75-5.58-1.49-10.79-2.23-15.63c-0.75-4.84-1.49-9.02-2.23-12.56
			c-0.56,3.54-1.3,7.63-2.23,12.28c-0.93,4.65-1.86,9.59-2.79,14.79c-0.93,5.21-1.86,10.65-2.79,16.33
			c-0.93,5.68-1.95,11.12-3.07,16.33c-2.42,12.47-5.02,25.5-7.82,39.08L274.93,210.73z"/>
		<path class="st2" d="M401.65,209.62c5.58-26.05,10.79-51.36,15.63-75.92c1.86-10.61,3.81-21.58,5.86-32.94
			c2.05-11.35,3.95-22.61,5.72-33.77c1.77-11.16,3.35-22,4.74-32.52c1.4-10.51,2.46-20.05,3.21-28.61c4.28,0.37,9.11,0.7,14.51,0.98
			c5.39,0.28,10.42,0.61,15.07,0.98c5.58,0.37,11.16,0.56,16.75,0.56c-0.19,0.75-0.47,2.14-0.84,4.19c-0.37,2.05-0.84,4.51-1.4,7.4
			c-0.56,2.89-1.16,6.1-1.81,9.63c-0.65,3.54-1.35,7.07-2.09,10.61c-1.49,8.19-3.17,17.4-5.02,27.63l1.67-0.28
			c1.86-2.97,4.51-7.12,7.96-12.42c3.44-5.3,7.02-10.93,10.75-16.89c3.72-5.95,7.35-11.68,10.89-17.17
			c3.53-5.49,6.51-10.19,8.93-14.1c9.3-0.74,18.6-1.58,27.91-2.51c9.3-0.93,18.6-2.14,27.91-3.63
			c-8.75,11.72-17.21,23.26-25.4,34.61c-3.54,4.84-7.12,9.87-10.75,15.07c-3.63,5.21-7.21,10.33-10.75,15.35
			c-3.54,5.02-6.84,9.87-9.91,14.51c-3.07,4.65-5.82,8.93-8.23,12.84c4.09,18.8,8.93,36.94,14.51,54.43
			c5.58,17.49,11.26,35.36,17.03,53.59c-4.28-0.18-8.65-0.32-13.12-0.42c-4.47-0.09-8.84-0.14-13.12-0.14
			c-5.4,0-10.61,0.05-15.63,0.14c-5.02,0.1-10.24,0.24-15.63,0.42c-1.67-12.09-3.49-24.79-5.44-38.1c-1.95-13.3-3.77-26-5.44-38.1
			l-5.02,5.86c-1.3,5.58-2.75,12.47-4.33,20.66c-1.58,8.19-3.12,16.1-4.61,23.72c-1.67,8.93-3.45,18.14-5.3,27.63L401.65,209.62z"/>
		<path class="st2" d="M530.88,209.9c5.21-26.05,10.23-51.45,15.07-76.2c1.86-10.61,3.81-21.63,5.86-33.08
			c2.05-11.44,3.95-22.75,5.72-33.91c1.77-11.16,3.44-22,5.02-32.52c1.58-10.51,2.84-20.05,3.77-28.61
			c4.28,0.19,8.23,0.42,11.86,0.7c3.63,0.28,7.21,0.51,10.75,0.7c3.53,0.19,7.12,0.33,10.75,0.42c3.63,0.1,7.58,0.14,11.86,0.14
			c-3.17,13.21-6.28,26.42-9.35,39.63c-3.07,13.21-5.91,26.52-8.51,39.91l27.63-3.07c2.6-13.21,4.93-26,6.98-38.38
			c2.05-12.37,4.74-25.16,8.09-38.38c4.28-0.74,9.02-1.35,14.24-1.81c5.21-0.46,10.05-0.88,14.51-1.26
			c4.47-0.37,9.77-0.84,15.91-1.4c-2.61,8.37-5.07,17.54-7.4,27.49c-2.33,9.96-4.61,20.28-6.84,30.98
			c-2.23,10.7-4.37,21.54-6.42,32.52c-2.05,10.98-3.91,21.4-5.58,31.26c-4.1,23.63-7.91,47.83-11.44,72.57l-43.54,5.02
			c2.42-11.16,4.56-22.05,6.42-32.66c1.86-8.93,3.77-18.23,5.72-27.91c1.95-9.67,3.49-17.96,4.61-24.84l-27.07,2.51
			c-1.3,7.07-2.84,15.26-4.61,24.56c-1.77,9.31-3.4,18.14-4.88,26.52c-2.05,10.05-4.1,20.1-6.14,30.14L530.88,209.9z"/>
		<path class="st2" d="M653.96,209.62l36.56-198.45l88.2-7.54c-1.3,4.09-2.42,8.28-3.35,12.56c-0.93,3.54-1.81,7.21-2.65,11.03
			c-0.84,3.82-1.54,7.21-2.09,10.19c-1.86,0.19-4.51,0.33-7.95,0.42c-3.45,0.1-7.12,0.19-11.03,0.28c-3.91,0.1-7.86,0.14-11.86,0.14
			c-4,0-7.49,0-10.47,0l-9.77,49.96c5.77-0.37,11.16-0.65,16.19-0.84c4.09-0.18,8.28-0.28,12.56-0.28c4.28,0,7.44-0.09,9.49-0.28
			c-0.75,5.21-1.44,10.33-2.09,15.35c-0.65,5.02-1.44,10.14-2.37,15.35c-1.86,0.19-4.88,0.33-9.07,0.42
			c-4.19,0.1-8.42,0.24-12.7,0.42c-4.84,0.19-10.14,0.38-15.91,0.56l-9.49,51.36l40.75-6.42l-2.79,31.82L653.96,209.62z"/>
		<path class="st2" d="M834.27,206.27c-5.58,0.93-10.61,1.77-15.07,2.51c0.74-6.14,1.49-12.19,2.23-18.14
			c0.56-5.21,1.07-10.42,1.54-15.63c0.46-5.21,0.88-9.67,1.26-13.4h-24.28l-11.16,40.19c-4.1,0.56-8.93,1.16-14.51,1.81
			c-5.58,0.65-10.79,1.26-15.63,1.81c-5.96,0.75-11.81,1.49-17.58,2.23c7.44-24.75,14.79-49.12,22.05-73.13
			c2.97-10.05,6.09-20.56,9.35-31.54c3.25-10.98,6.51-21.91,9.77-32.8c3.25-10.89,6.37-21.35,9.35-31.4
			c2.97-10.05,5.58-19.26,7.82-27.63c12.65-0.93,25.54-2.05,38.66-3.35c13.12-1.3,25.91-3.07,38.38-5.3
			c-0.56,5.96-1.16,13.35-1.81,22.19c-0.65,8.84-1.26,18.47-1.81,28.89c-0.56,10.42-1.12,21.31-1.67,32.66
			c-0.56,11.35-1.12,22.52-1.67,33.49c-0.93,25.68-1.95,52.94-3.07,81.78c-5.58,0.93-11.16,1.67-16.75,2.23
			C844.97,204.5,839.85,205.34,834.27,206.27z M806.64,133.7c0.74,0,2.09-0.04,4.05-0.14c1.95-0.09,4-0.18,6.14-0.28
			c2.14-0.09,4.14-0.18,6-0.28c1.86-0.09,3.16-0.23,3.91-0.42c0-1.12,0.14-3.02,0.42-5.72c0.28-2.69,0.56-5.77,0.84-9.21
			c0.28-3.44,0.6-7.21,0.98-11.3c0.37-4.09,0.74-8.09,1.12-12c0.74-9.49,1.67-19.72,2.79-30.7l1.67-24.28l-4.19,0.28l-6.42,24
			L806.64,133.7z"/>
		<path class="st2" d="M1005.65,97.55c-2.79,10.89-6.7,21.68-11.72,32.38c-5.02,10.7-11.21,20.93-18.56,30.7
			c-7.35,9.77-15.68,18.33-24.98,25.68c-9.31,7.35-19.49,13.26-30.56,17.72c-11.07,4.47-22.84,6.7-35.31,6.7
			c-2.61,0-5.21-0.14-7.82-0.42c-2.61-0.28-5.21-0.61-7.81-0.98c5.02-25.68,9.95-50.7,14.79-75.08c1.86-10.23,3.81-20.89,5.86-31.96
			c2.05-11.07,4-22,5.86-32.8c1.86-10.79,3.67-21.12,5.44-30.98c1.77-9.86,3.21-18.79,4.33-26.8c8-1.49,16.09-2.88,24.28-4.19
			c8.19-1.3,16.56-1.95,25.12-1.95c10.05,0,18.56,1.58,25.54,4.75c6.98,3.17,12.65,7.54,17.03,13.12c4.37,5.58,7.58,12.1,9.63,19.54
			c2.05,7.44,3.07,15.35,3.07,23.72C1009.84,76.39,1008.44,86.67,1005.65,97.55z M937.54,76.48c-2.23,10.05-4.47,20.19-6.7,30.42
			c-2.23,10.24-4.47,20.93-6.7,32.1c-2.23,11.16-4.37,23.35-6.42,36.56c4.47-2.97,8.79-7.02,12.98-12.14
			c4.19-5.12,8.14-11.02,11.86-17.72c3.72-6.7,7.12-13.77,10.19-21.21c3.07-7.44,5.72-14.7,7.95-21.77
			c2.23-7.07,3.95-13.68,5.16-19.82c1.21-6.14,1.81-11.44,1.81-15.91c0-6.88-1.91-12.28-5.72-16.19c-3.82-3.91-9.82-5.86-18-5.86
			C941.91,55.92,939.78,66.43,937.54,76.48z"/>
	</g>
</g>
</svg>
